<svg width="57" height="56" viewBox="0 0 57 56" fill="none" xmlns="http://www.w3.org/2000/svg">
<path d="M28.6257 12.4445C20.0341 12.4445 13.0701 19.4084 13.0701 28C13.0701 36.5917 20.0341 43.5556 28.6257 43.5556C37.2173 43.5556 44.1813 36.5917 44.1813 28C44.1813 19.4084 37.2173 12.4445 28.6257 12.4445ZM16.4127 28.1618L28.4639 40.213C21.846 40.1271 16.4986 34.7797 16.4127 28.1618ZM31.3597 39.9081L16.7176 25.266C17.9596 19.8365 22.8191 15.7845 28.6257 15.7845C32.6838 15.7845 36.2803 17.7645 38.5016 20.8109L36.8104 22.3029C35.0085 19.7195 32.0143 18.0283 28.6257 18.0283C24.3112 18.0283 20.6364 20.7685 19.2476 24.6039L32.0218 37.3769C35.1242 36.2532 37.5098 33.6349 38.3087 30.3918H33.0149V28H40.8424C40.8412 33.8066 36.7893 38.6661 31.3597 39.9081Z" fill="#744C9E"/>
</svg>
