<svg width="57" height="56" viewBox="0 0 57 56" fill="none" xmlns="http://www.w3.org/2000/svg">
<path d="M28.0585 12.5294L28.8934 14.0887C29.081 14.3765 29.2844 14.6312 29.5239 14.8684C30.2261 15.558 30.8806 16.294 31.483 17.0713C32.8975 18.9184 33.8517 20.9696 34.533 23.1881C34.9417 24.5432 35.1636 25.9334 35.1802 27.3391C35.2486 31.5418 33.7998 35.1504 30.8788 38.1495C30.4037 38.625 29.8904 39.0614 29.344 39.4541C29.0547 39.4541 28.9178 39.2334 28.7985 39.0302C28.5813 38.6535 28.4368 38.2397 28.3723 37.8102C28.2697 37.3017 28.2022 36.7933 28.2354 36.2683V36.0311C28.212 35.9806 27.9568 12.649 28.0585 12.5294Z" fill="#599636"/>
<path d="M28.0585 12.4779C28.0243 12.4099 27.9901 12.4614 27.9559 12.4944C27.9725 12.8347 27.8532 13.138 27.6665 13.4277C27.4612 13.7155 27.1894 13.9361 26.9167 14.1733C25.4014 15.478 24.2088 17.0538 23.2537 18.8163C21.9828 21.1884 21.3279 23.7305 21.1421 26.4069C21.0571 27.3722 21.4491 30.7786 21.7551 31.7615C22.5899 34.3707 24.0895 36.5571 26.032 38.4547C26.509 38.9116 27.0193 39.3355 27.5472 39.7428C27.7007 39.7428 27.7173 39.6067 27.7525 39.5056C27.8198 39.2893 27.8711 39.0683 27.906 38.8446L28.2482 36.3034L28.0585 12.4779Z" fill="#6CAC48"/>
<path d="M28.8934 40.4865C28.9276 40.0977 29.1153 39.7749 29.3196 39.4531C29.1143 39.3686 28.9618 39.2004 28.8425 39.0128C28.7397 38.8351 28.6546 38.6479 28.5884 38.4538C28.3498 37.7422 28.299 36.9956 28.2306 36.2684V35.828C28.1455 35.8961 28.1279 36.4716 28.1279 36.5571C28.0782 37.3257 27.9756 38.0899 27.821 38.8446C27.7701 39.1498 27.7359 39.4541 27.5472 39.7253C27.5472 39.7594 27.5472 39.7934 27.5639 39.8439C27.8708 40.7422 27.9549 41.657 28.0067 42.5893V42.9295C28.0067 43.3359 27.9901 43.2503 28.3293 43.3864C28.4662 43.437 28.6187 43.4545 28.7555 43.5556C28.8582 43.5556 28.8748 43.471 28.8748 43.403L28.824 42.844V41.2847C28.8073 41.0125 28.8582 40.7422 28.8924 40.4875L28.8934 40.4865Z" fill="#C2BFBF"/>
</svg>
