<svg width="57" height="56" viewBox="0 0 57 56" fill="none" xmlns="http://www.w3.org/2000/svg">
<path d="M41.3306 36.4763C39.6285 36.4335 38.3092 36.6053 37.2028 37.0778C36.8836 37.2065 36.3729 37.2067 36.3303 37.6148C36.5005 37.7866 36.5218 38.0659 36.6708 38.3021C36.9264 38.7316 37.3729 39.3115 37.7772 39.6124C38.224 39.956 38.671 40.2995 39.1389 40.6003C39.9688 41.1158 40.9052 41.4164 41.7137 41.932C42.182 42.2325 42.6498 42.6194 43.1179 42.9415C43.352 43.1131 43.5008 43.3926 43.7989 43.4998V43.4355C43.6498 43.2421 43.6073 42.9629 43.4584 42.7481C43.2459 42.5333 43.0328 42.34 42.82 42.1252C42.203 41.2877 41.437 40.5573 40.6072 39.956C39.9264 39.4834 38.4368 38.8391 38.1603 38.0443C38.1603 38.0443 38.1389 38.0229 38.1177 38.0014C38.5858 37.9585 39.1389 37.7866 39.5859 37.6578C40.3093 37.4643 40.9689 37.5074 41.7137 37.3141C42.054 37.2281 42.3945 37.1207 42.7349 37.0133V36.8201C42.3521 36.4335 42.0754 35.918 41.6711 35.5529C40.586 34.6076 39.3943 33.6842 38.1603 32.911C37.5006 32.4813 36.6494 32.2021 35.9473 31.837C35.6921 31.708 35.2664 31.6437 35.1176 31.4289C34.7344 30.9564 34.5216 30.3336 34.2451 29.7751C33.6282 28.5937 33.0323 27.2836 32.5002 26.0379C32.1175 25.2002 31.8834 24.3624 31.4152 23.5893C29.2236 19.938 26.8405 17.7257 23.1808 15.5562C22.3934 15.1052 21.4572 14.9119 20.4572 14.6757C19.9254 14.6541 19.3933 14.6113 18.8614 14.5897C18.5209 14.4393 18.1804 14.0313 17.8825 13.838C16.6699 13.0647 13.5419 11.3895 12.6482 13.6018C12.0737 14.9978 13.4994 16.3724 13.9886 17.0814C14.3506 17.5753 14.8185 18.1337 15.0739 18.6922C15.2229 19.0571 15.2653 19.444 15.4143 19.8305C15.7549 20.7753 16.0738 21.828 16.5208 22.7087C16.7549 23.1597 17.0102 23.6322 17.3081 24.0403C17.4783 24.2765 17.7761 24.384 17.8401 24.7705C17.5423 25.2002 17.5209 25.8446 17.3505 26.3815C16.5846 28.8086 16.8826 31.8156 17.9676 33.5982C18.308 34.135 19.1166 35.3167 20.2018 34.8655C21.1594 34.4789 20.9466 33.2547 21.223 32.1807C21.2871 31.9227 21.2445 31.7511 21.3721 31.5793V31.6224C21.67 32.2236 21.9678 32.8037 22.2445 33.405C22.9041 34.4573 24.053 35.5529 25.0105 36.2832C25.5213 36.6696 25.9255 37.3355 26.5639 37.5718V37.5073H26.5213C26.3936 37.3139 26.2021 37.2281 26.0319 37.0776C25.649 36.6912 25.2233 36.2187 24.9255 35.789C24.032 34.5861 23.2445 33.2545 22.5424 31.8799C22.202 31.2142 21.904 30.4839 21.6275 29.8181C21.4996 29.5601 21.4996 29.1736 21.287 29.0449C20.9678 29.5173 20.4997 29.9255 20.2656 30.5053C19.8616 31.4289 19.8189 32.5673 19.6699 33.7485C19.5848 33.7702 19.6272 33.7485 19.5847 33.7917C18.904 33.6196 18.6699 32.911 18.4144 32.3095C17.776 30.7846 17.6696 28.336 18.223 26.5748C18.372 26.1237 19.0104 24.7062 18.755 24.2766C18.6273 23.8685 18.2016 23.6322 17.9676 23.3101C17.6911 22.902 17.3931 22.3867 17.2017 21.9354C16.691 20.7326 16.4356 19.4009 15.8824 18.1981C15.6271 17.6396 15.1804 17.0599 14.8185 16.5443C14.4143 15.9645 13.9675 15.5562 13.6483 14.8689C13.542 14.6328 13.3929 14.2461 13.5631 13.9883C13.6057 13.8165 13.6907 13.7522 13.8611 13.7092C14.1377 13.4728 14.9251 13.7735 15.2015 13.9024C15.9888 14.2244 16.6484 14.5254 17.3081 14.9763C17.6059 15.1912 17.9251 15.5993 18.308 15.7067H18.7549C19.4358 15.8569 20.2017 15.7497 20.8401 15.9429C21.9679 16.3079 22.9891 16.8449 23.9042 17.4249C26.6916 19.2076 28.9894 21.7421 30.5428 24.7705C30.7982 25.2644 30.9045 25.7157 31.1386 26.231C31.5856 27.2836 32.1387 28.3575 32.5854 29.3885C33.0323 30.3978 33.4577 31.4289 34.0961 32.2667C34.4153 32.7175 35.6919 32.9539 36.2665 33.1902C36.6921 33.3834 37.3517 33.5554 37.7347 33.7916C38.4581 34.2424 39.1815 34.7582 39.8624 35.252C40.2029 35.5098 41.2667 36.0468 41.3306 36.4763Z" fill="#00546B"/>
<path d="M19.6271 17.8114C19.2655 17.8114 19.0102 17.8546 18.7549 17.9189V17.9619H18.7974C18.9678 18.3056 19.2655 18.5419 19.4782 18.8425C19.6485 19.1861 19.7974 19.5299 19.9677 19.8736C19.9889 19.852 20.0102 19.8306 20.0102 19.8306C20.3082 19.6157 20.457 19.2721 20.457 18.7566C20.3294 18.6063 20.3081 18.456 20.2017 18.3056C20.0741 18.0907 19.7974 17.9834 19.6271 17.8114Z" fill="#00546B"/>
</svg>
