<svg width="57" height="56" viewBox="0 0 57 56" fill="none" xmlns="http://www.w3.org/2000/svg">
<path d="M20.0982 23.5323H25.966V23.9965H20.6361V27.4898H25.6482V27.9539H20.6361V31.7892H26.0272V32.2534H20.0982V23.5323ZM26.4917 23.5323H27.1152L29.8779 27.3676L32.7018 23.5323L36.5428 18.6606L30.2324 27.7707L33.4842 32.2534H32.8363L29.8779 28.1738L26.9073 32.2534H26.2717L29.5479 27.7707L26.4917 23.5323ZM33.7165 23.9965V23.5323H40.4034V23.9965H37.3228V32.2534H36.7849V23.9965H33.7165Z" fill="black"/>
<path d="M12.7573 23.5323H13.4297L22.7011 37.3395L18.8696 32.2534L13.3196 24.1919L13.2952 32.2534H12.7573V23.5323Z" fill="black"/>
<path d="M40.3492 31.6492C40.4604 31.6492 40.5415 31.5644 40.5415 31.4549C40.5415 31.3454 40.4604 31.2607 40.3492 31.2607C40.2393 31.2607 40.1569 31.3454 40.1569 31.4549C40.1569 31.5644 40.2393 31.6492 40.3492 31.6492ZM40.8777 31.1381C40.8777 31.4615 41.1119 31.6727 41.4534 31.6727C41.8171 31.6727 42.0368 31.4549 42.0368 31.0769V29.7458H41.7438V31.0756C41.7438 31.2855 41.6378 31.3976 41.4507 31.3976C41.2833 31.3976 41.1695 31.2933 41.1655 31.1381H40.8777ZM42.4202 31.1212C42.4411 31.4575 42.7224 31.6727 43.141 31.6727C43.5884 31.6727 43.8684 31.4471 43.8684 31.0873C43.8684 30.8044 43.7088 30.648 43.3215 30.558L43.1135 30.5072C42.8676 30.4498 42.7682 30.3729 42.7682 30.2386C42.7682 30.0691 42.9225 29.9583 43.1541 29.9583C43.3739 29.9583 43.5256 30.0665 43.5531 30.2399H43.8383C43.8213 29.9231 43.5413 29.7002 43.158 29.7002C42.7459 29.7002 42.4712 29.9231 42.4712 30.2582C42.4712 30.5345 42.6269 30.6988 42.9683 30.7783L43.2117 30.837C43.4615 30.8957 43.5714 30.9817 43.5714 31.1251C43.5714 31.292 43.3987 31.4132 43.1632 31.4132C42.9108 31.4132 42.7354 31.2998 42.7106 31.1212H42.4202Z" fill="black"/>
</svg>
