<svg width="57" height="56" viewBox="0 0 57 56" fill="none" xmlns="http://www.w3.org/2000/svg">
<path d="M28.3566 12.5254C20.4145 12.5254 20.9104 15.9504 20.9104 15.9504L20.9192 19.4988H28.4982V20.5642H17.909C17.909 20.5642 12.8268 19.991 12.8268 27.96C12.8268 35.9292 17.2627 35.6465 17.2627 35.6465H19.9099V31.9485C19.9099 31.9485 19.7672 27.5374 24.2749 27.5374H31.7919C31.7919 27.5374 36.0152 27.6052 36.0152 23.4784V16.6549C36.0152 16.6549 36.6566 12.5254 28.3566 12.5254ZM24.1775 14.9116C24.3566 14.9115 24.534 14.9464 24.6995 15.0145C24.865 15.0826 25.0154 15.1825 25.142 15.3084C25.2687 15.4343 25.3691 15.5839 25.4375 15.7484C25.506 15.913 25.5412 16.0894 25.541 16.2675C25.5412 16.4456 25.506 16.622 25.4375 16.7866C25.3691 16.9511 25.2687 17.1007 25.142 17.2266C25.0154 17.3526 24.865 17.4524 24.6995 17.5205C24.534 17.5886 24.3566 17.6235 24.1775 17.6234C23.9984 17.6235 23.8211 17.5886 23.6556 17.5205C23.4901 17.4524 23.3397 17.3526 23.2131 17.2266C23.0864 17.1007 22.986 16.9511 22.9176 16.7866C22.8491 16.622 22.8139 16.4456 22.8141 16.2675C22.8139 16.0894 22.8491 15.913 22.9176 15.7484C22.986 15.5839 23.0864 15.4343 23.2131 15.3084C23.3397 15.1825 23.4901 15.0826 23.6556 15.0145C23.8211 14.9464 23.9984 14.9115 24.1775 14.9116Z" fill="url(#paint0_linear_241_5014)"/>
<path d="M28.5821 43.4747C36.5242 43.4747 36.0283 40.0497 36.0283 40.0497L36.0195 36.5014H28.4404V35.4361H39.0296C39.0296 35.4361 44.1118 36.0092 44.1118 28.04C44.1118 20.0709 39.676 20.3535 39.676 20.3535H37.0287V24.0514C37.0287 24.0514 37.1714 28.4626 32.6637 28.4626H25.1467C25.1467 28.4626 20.9234 28.3948 20.9234 32.5217V39.3453C20.9234 39.3453 20.2821 43.4747 28.582 43.4747H28.5821ZM32.7612 41.0887C32.5821 41.0889 32.4047 41.0539 32.2392 40.9858C32.0737 40.9178 31.9234 40.8179 31.7967 40.692C31.6701 40.566 31.5697 40.4165 31.5012 40.2519C31.4327 40.0873 31.3976 39.9109 31.3977 39.7328C31.3976 39.5547 31.4327 39.3783 31.5012 39.2137C31.5696 39.0492 31.67 38.8996 31.7967 38.7737C31.9233 38.6477 32.0737 38.5478 32.2392 38.4797C32.4047 38.4117 32.5821 38.3767 32.7612 38.3768C32.9403 38.3767 33.1177 38.4116 33.2831 38.4797C33.4486 38.5478 33.599 38.6477 33.7257 38.7736C33.8523 38.8996 33.9527 39.0491 34.0212 39.2137C34.0896 39.3782 34.1248 39.5546 34.1246 39.7327C34.1248 39.9108 34.0896 40.0872 34.0212 40.2518C33.9527 40.4164 33.8523 40.5659 33.7257 40.6918C33.599 40.8178 33.4486 40.9176 33.2831 40.9857C33.1177 41.0538 32.9403 41.0888 32.7612 41.0886V41.0887Z" fill="url(#paint1_linear_241_5014)"/>
<defs>
<linearGradient id="paint0_linear_241_5014" x1="15.8333" y1="15.3091" x2="31.2516" y2="30.6589" gradientUnits="userSpaceOnUse">
<stop stop-color="#387EB8"/>
<stop offset="1" stop-color="#366994"/>
</linearGradient>
<linearGradient id="paint1_linear_241_5014" x1="25.3496" y1="25.1107" x2="41.9114" y2="40.8545" gradientUnits="userSpaceOnUse">
<stop stop-color="#FFE052"/>
<stop offset="1" stop-color="#FFC331"/>
</linearGradient>
</defs>
</svg>
