<svg width="57" height="56" viewBox="0 0 57 56" fill="none" xmlns="http://www.w3.org/2000/svg">
<path d="M28.1565 30.7429C29.6797 30.7429 30.9146 29.5149 30.9146 28C30.9146 26.4852 29.6797 25.2572 28.1565 25.2572C26.6332 25.2572 25.3983 26.4852 25.3983 28C25.3983 29.5149 26.6332 30.7429 28.1565 30.7429Z" fill="#61DAFB"/>
<path fill-rule="evenodd" clip-rule="evenodd" d="M15.1877 26.5567C14.5622 27.1182 14.3566 27.6078 14.3566 27.9999C14.3566 28.3921 14.5622 28.8817 15.1877 29.4431C15.8127 30.0043 16.7736 30.5554 18.0463 31.0386C20.5848 32.0024 24.1589 32.6194 28.1564 32.6194C32.1539 32.6194 35.7281 32.0024 38.2665 31.0386C39.5393 30.5554 40.5002 30.0043 41.1252 29.4431C41.7507 28.8817 41.9563 28.3921 41.9563 27.9999C41.9563 27.6078 41.7507 27.1182 41.1252 26.5567C40.5002 25.9956 39.5393 25.4445 38.2665 24.9613C35.7281 23.9974 32.1539 23.3805 28.1564 23.3805C24.1589 23.3805 20.5848 23.9974 18.0463 24.9613C16.7736 25.4445 15.8127 25.9956 15.1877 26.5567ZM17.3364 23.0915C20.1545 22.0215 23.9802 21.3805 28.1564 21.3805C32.3327 21.3805 36.1584 22.0215 38.9765 23.0915C40.382 23.6252 41.5885 24.285 42.4612 25.0685C43.3336 25.8516 43.9563 26.8403 43.9563 27.9999C43.9563 29.1596 43.3336 30.1483 42.4612 30.9314C41.5885 31.7149 40.382 32.3747 38.9765 32.9084C36.1584 33.9784 32.3327 34.6194 28.1564 34.6194C23.9802 34.6194 20.1545 33.9784 17.3364 32.9084C15.9309 32.3747 14.7244 31.7149 13.8516 30.9314C12.9793 30.1483 12.3566 29.1596 12.3566 27.9999C12.3566 26.8403 12.9793 25.8516 13.8516 25.0685C14.7244 24.285 15.9309 23.6252 17.3364 23.0915Z" fill="#61DAFB"/>
<path fill-rule="evenodd" clip-rule="evenodd" d="M22.9369 16.1116C22.1362 15.854 21.6043 15.9204 21.2586 16.1189C20.9128 16.3174 20.589 16.7423 20.413 17.5607C20.237 18.3791 20.2375 19.4814 20.4529 20.8183C20.8825 23.4848 22.1317 26.8701 24.1299 30.3118C26.128 33.7534 28.4515 36.5219 30.5589 38.2252C31.6154 39.0791 32.5751 39.6307 33.3759 39.8883C34.1766 40.1459 34.7085 40.0795 35.0542 39.881C35.4 39.6824 35.7238 39.2576 35.8998 38.4392C36.0758 37.6208 36.0753 36.5185 35.8599 35.1816C35.4303 32.515 34.1811 29.1298 32.183 25.6881C30.1848 22.2465 27.8613 19.478 25.7539 17.7747C24.6974 16.9208 23.7377 16.3692 22.9369 16.1116ZM27.0147 16.2263C29.3567 18.1192 31.8287 21.0946 33.9174 24.6923C36.0061 28.29 37.3614 31.9066 37.8388 34.8701C38.0769 36.3482 38.1056 37.7179 37.8596 38.8617C37.6135 40.0056 37.064 41.0332 36.0584 41.6106C35.0528 42.188 33.8831 42.1474 32.764 41.7873C31.6448 41.4273 30.4664 40.7178 29.2982 39.7736C26.9561 37.8807 24.4841 34.9053 22.3954 31.3076C20.3067 27.7099 18.9515 24.0933 18.474 21.1298C18.2359 19.6517 18.2072 18.282 18.4533 17.1382C18.6993 15.9943 19.2488 14.9667 20.2544 14.3893C21.26 13.8119 22.4297 13.8525 23.5489 14.2126C24.668 14.5726 25.8465 15.2821 27.0147 16.2263Z" fill="#61DAFB"/>
<path fill-rule="evenodd" clip-rule="evenodd" d="M35.8998 17.5606C35.7238 16.7423 35.4 16.3174 35.0543 16.1189C34.7085 15.9204 34.1766 15.854 33.3759 16.1115C32.5752 16.3692 31.6154 16.9208 30.5589 17.7747C28.4515 19.4779 26.128 22.2464 24.1299 25.6881C22.1317 29.1297 20.8825 32.515 20.4529 35.1815C20.2375 36.5184 20.237 37.6207 20.413 38.4392C20.5891 39.2576 20.9128 39.6824 21.2586 39.8809C21.6044 40.0794 22.1362 40.1459 22.9369 39.8883C23.7377 39.6306 24.6974 39.079 25.754 38.2251C27.8614 36.5219 30.1848 33.7534 32.183 30.3117C34.1811 26.8701 35.4304 23.4848 35.86 20.8183C36.0753 19.4814 36.0759 18.3791 35.8998 17.5606ZM37.8388 21.1298C37.3614 24.0932 36.0062 27.7099 33.9174 31.3075C31.8287 34.9052 29.3567 37.8807 27.0147 39.7736C25.8465 40.7177 24.668 41.4273 23.5489 41.7873C22.4297 42.1473 21.26 42.1879 20.2544 41.6105C19.2488 41.0332 18.6993 40.0056 18.4533 38.8617C18.2073 37.7179 18.2359 36.3482 18.4741 34.87C18.9515 31.9066 20.3067 28.2899 22.3954 24.6923C24.4841 21.0946 26.9561 18.1191 29.2982 16.2262C30.4664 15.2821 31.6449 14.5725 32.764 14.2125C33.8832 13.8525 35.0528 13.8119 36.0584 14.3893C37.0641 14.9666 37.6136 15.9943 37.8596 17.1381C38.1056 18.2819 38.077 19.6516 37.8388 21.1298Z" fill="#61DAFB"/>
</svg>
