<svg width="57" height="56" viewBox="0 0 57 56" fill="none" xmlns="http://www.w3.org/2000/svg">
<path d="M12.7573 12.4445H43.8684V43.5556H12.7573V12.4445Z" fill="#017ACB"/>
<path d="M27.6955 23.9653H29.1879V26.5417H25.1532V38.0042L25.0462 38.0334C24.9004 38.0723 22.9803 38.0723 22.5671 38.0285L22.2365 37.9994V26.5417H18.2018V23.9653L19.4803 23.9508C20.1803 23.941 21.9789 23.941 23.4761 23.9508C24.9733 23.9605 26.8692 23.9653 27.6955 23.9653ZM39.0851 36.7889C38.4921 37.416 37.8553 37.766 36.7956 38.0528C36.3338 38.1792 36.256 38.1841 35.2157 38.1792C34.1754 38.1744 34.0928 38.1744 33.5872 38.0431C32.2796 37.7077 31.2247 37.0515 30.5053 36.123C30.3011 35.8605 29.9657 35.316 29.9657 35.248C29.9657 35.2285 30.0143 35.1848 30.0775 35.1556C30.1407 35.1265 30.2719 35.0438 30.3789 34.9806C30.4858 34.9174 30.6803 34.8008 30.8115 34.7327C30.9428 34.6646 31.3219 34.441 31.6525 34.2417C31.9831 34.0424 32.2844 33.882 32.3185 33.882C32.3525 33.882 32.4157 33.9501 32.4643 34.0327C32.756 34.5237 33.4365 35.1508 33.9178 35.3646C34.2143 35.491 34.8706 35.632 35.1865 35.632C35.4782 35.632 36.0129 35.5056 36.2997 35.3744C36.606 35.2334 36.7615 35.0924 36.9463 34.8105C37.0726 34.6112 37.0872 34.5577 37.0824 34.1785C37.0824 33.8285 37.0629 33.7313 36.9657 33.5709C36.6935 33.1237 36.324 32.8903 34.8268 32.2292C33.281 31.5438 32.5858 31.1355 32.0219 30.5862C31.6039 30.1778 31.5212 30.066 31.2587 29.5556C30.9185 28.8994 30.8747 28.6855 30.8699 27.7084C30.865 27.023 30.8796 26.7994 30.9525 26.566C31.0546 26.216 31.3851 25.5403 31.5358 25.3702C31.8469 25.0056 31.9587 24.8938 32.1775 24.714C32.8386 24.1695 33.8692 23.8098 34.856 23.7758C34.9678 23.7758 35.3372 23.7952 35.6824 23.8195C36.674 23.9021 37.3497 24.1452 38.0011 24.6653C38.4921 25.0542 39.2358 25.9681 39.1629 26.0896C39.1143 26.1626 37.1747 27.4556 37.0483 27.4945C36.9706 27.5188 36.9171 27.4896 36.8101 27.3633C36.149 26.5709 35.8817 26.4008 35.24 26.3619C34.7831 26.3327 34.54 26.3862 34.2338 26.5903C33.9129 26.8042 33.7574 27.1299 33.7574 27.582C33.7622 28.2431 34.015 28.5542 34.9483 29.016C35.5511 29.3126 36.0664 29.5556 36.1053 29.5556C36.1636 29.5556 37.4129 30.1778 37.7386 30.3723C39.2553 31.2619 39.8727 32.1758 40.0331 33.7508C40.1497 34.9369 39.8143 36.0209 39.0851 36.7889Z" fill="white"/>
</svg>
