<svg width="80" height="80" viewBox="0 0 80 80" fill="none" xmlns="http://www.w3.org/2000/svg">
<rect width="80" height="80" rx="10" fill="white"/>
<path d="M65.0954 29C65.3027 29 65.4533 29.1967 65.3983 29.396L59.4438 51C59.4065 51.1358 59.2824 51.2301 59.1409 51.2301H52.6617C52.5339 51.2301 52.4188 51.1531 52.3704 51.0348L48.9864 42.719C48.8809 42.4603 48.5143 42.458 48.4054 42.7155L44.8973 51.0385C44.8485 51.1548 44.7343 51.2301 44.6077 51.2301H38.0638C37.9535 51.2301 37.8514 51.1726 37.7946 51.0782L32.0454 41.5508C31.9196 41.3421 32.0703 41.0764 32.3146 41.0764H37.7508C37.8372 41.0764 37.9198 41.1119 37.9791 41.1744L41.0704 44.4344C41.2345 44.6073 41.5245 44.542 41.5977 44.3152L45.5499 32.0796C45.5917 31.9502 45.7125 31.8625 45.849 31.8625H51.6827C51.8205 31.8625 51.9421 31.9519 51.9827 32.0831L55.5773 43.6755C55.6729 43.9833 56.1169 43.9639 56.1848 43.6486L59.2936 29.2473C59.325 29.103 59.4529 29 59.601 29H65.0954Z" fill="#484848"/>
<path d="M14 40.0168C14 37.6895 14.5022 35.6196 15.5066 33.807C16.511 31.972 17.906 30.551 19.6916 29.5441C21.4996 28.5147 23.5419 28 25.8186 28C28.6086 28 30.9968 28.7385 32.9834 30.2154C34.8673 31.6161 36.159 33.4998 36.8586 35.8665C36.9166 36.0632 36.7664 36.2574 36.5606 36.2574H30.8719C30.7505 36.2574 30.6407 36.1874 30.5852 36.0799C30.122 35.1822 29.4818 34.4917 28.6644 34.0084C27.8162 33.4937 26.8453 33.2364 25.7516 33.2364C23.9883 33.2364 22.5598 33.8517 21.4661 35.0825C20.3724 36.3133 19.8256 37.9581 19.8256 40.0168C19.8256 42.0755 20.3724 43.7204 21.4661 44.951C22.5598 46.1817 23.9883 46.7974 25.7516 46.7974C26.7583 46.7974 27.6609 46.5793 28.4595 46.1432C28.5824 46.0761 28.7354 46.0902 28.8384 46.185L30.7402 47.9299L32.6789 49.5619C32.8341 49.6927 32.826 49.9335 32.6579 50.0477C30.7376 51.3491 28.4579 52 25.8186 52C23.5419 52 21.4996 51.4964 19.6916 50.4897C17.906 49.4601 16.511 48.0392 15.5066 46.2263C14.5022 44.4139 14 42.3441 14 40.0168Z" fill="#484848"/>
</svg>
