<svg width="615" height="454" viewBox="0 0 615 454" fill="none" xmlns="http://www.w3.org/2000/svg">
<g clip-path="url(#clip0_206_196)">
<g style="mix-blend-mode:multiply" opacity="0.5" filter="url(#filter0_f_206_196)">
<path style="mix-blend-mode:multiply" fill-rule="evenodd" clip-rule="evenodd" d="M77.7758 342.709C77.9372 342.709 78.0986 342.71 78.2597 342.71L537.501 342.709H537.985C569.389 342.77 594.766 348.8 594.766 356.229H537.985H480.237H135.04H78.2597H20.5117C20.5117 348.762 46.1497 342.709 77.7758 342.709Z" fill="url(#paint0_linear_206_196)"/>
</g>
<g style="mix-blend-mode:multiply" filter="url(#filter1_f_206_196)">
<path d="M39.7661 344.399C39.7661 343.839 40.2198 343.385 40.7795 343.385H567.742C568.302 343.385 568.755 343.839 568.755 344.399C568.755 344.959 568.301 345.413 567.742 345.413H40.7795C40.2198 345.413 39.7661 344.959 39.7661 344.399Z" fill="#272737"/>
</g>
<path opacity="0.7" d="M63.4121 13.5191C63.4121 6.05271 69.4616 0 76.924 0H538.354C545.816 0 551.866 6.05271 551.866 13.5191V321.079C551.866 328.545 545.816 334.598 538.354 334.598H76.924C69.4616 334.598 63.4121 328.545 63.4121 321.079V13.5191Z" fill="#F6F6F6"/>
<path d="M64.4253 13.8571C64.4253 6.764 70.1723 1.01392 77.2616 1.01392H538.016C545.105 1.01392 550.852 6.76399 550.852 13.8571V320.741C550.852 327.834 545.105 333.584 538.016 333.584H77.2616C70.1723 333.584 64.4253 327.834 64.4253 320.741V13.8571Z" fill="#313030"/>
<path d="M64.4253 13.8571C64.4253 6.764 70.1723 1.01392 77.2616 1.01392H538.016C545.105 1.01392 550.852 6.76399 550.852 13.8571V320.741C550.852 327.834 545.105 333.584 538.016 333.584H77.2616C70.1723 333.584 64.4253 327.834 64.4253 320.741V13.8571Z" fill="url(#paint1_linear_206_196)" fill-opacity="0.2"/>
<path d="M66.79 316.347H548.825V319.727C548.825 327.38 542.625 333.584 534.976 333.584H79.9641C72.6883 333.584 66.79 327.683 66.79 320.403V316.347Z" fill="#F2F2F2"/>
<path fill-rule="evenodd" clip-rule="evenodd" d="M537.678 3.0418H77.5993C71.6294 3.0418 66.7899 7.88396 66.7899 13.8571V320.065C66.7899 326.038 71.6294 330.88 77.5993 330.88H537.678C543.648 330.88 548.487 326.038 548.487 320.065V13.8571C548.487 7.88397 543.648 3.0418 537.678 3.0418ZM77.5993 2.36584C71.2563 2.36584 66.1143 7.51064 66.1143 13.8571V320.065C66.1143 326.411 71.2563 331.556 77.5993 331.556H537.678C544.021 331.556 549.163 326.411 549.163 320.065V13.8571C549.163 7.51065 544.021 2.36584 537.678 2.36584H77.5993Z" fill="#F2F2F2"/>
<path d="M72.1948 14.533H542.745V309.25H72.1948V14.533Z" fill="black"/>
<path style="mix-blend-mode:screen" d="M72.1948 14.533H542.745V309.25H72.1948V14.533Z" fill="url(#paint2_linear_206_196)"/>
<path fill-rule="evenodd" clip-rule="evenodd" d="M548.825 343.723C581.862 343.708 608.615 339.326 608.615 333.922H488.698C488.698 334.035 488.709 334.148 488.732 334.26H126.918H67.4655H7C7 339.673 33.8445 344.061 66.9588 344.061C67.1279 344.061 67.2968 344.061 67.4655 344.061H548.825V343.723Z" fill="#D8D8D8"/>
<path style="mix-blend-mode:multiply" fill-rule="evenodd" clip-rule="evenodd" d="M548.825 343.723C581.862 343.708 608.615 339.326 608.615 333.922H488.698C488.698 334.035 488.709 334.148 488.732 334.26H126.918H67.4655H7C7 339.673 33.8445 344.061 66.9588 344.061C67.1279 344.061 67.2968 344.061 67.4655 344.061H548.825V343.723Z" fill="url(#paint3_linear_206_196)" fill-opacity="0.5"/>
<path d="M7 325.473H608.277V334.26C608.277 335.007 607.672 335.612 606.926 335.612H8.3512C7.60496 335.612 7 335.007 7 334.26V325.473Z" fill="#313030"/>
<path d="M7 325.473H608.277V334.26C608.277 335.007 607.672 335.612 606.926 335.612H8.3512C7.60496 335.612 7 335.007 7 334.26V325.473Z" fill="url(#paint4_linear_206_196)" fill-opacity="0.5"/>
<path opacity="0.5" d="M266.09 325.473H349.188C349.188 329.019 346.314 331.894 342.77 331.894H272.508C268.963 331.894 266.09 329.019 266.09 325.473Z" fill="url(#paint5_linear_206_196)"/>
<path d="M242.793 212.835C242.793 212.118 243.375 211.537 244.092 211.537H245.067C245.784 211.537 246.366 212.118 246.366 212.835V238.456C246.366 239.173 245.784 239.753 245.067 239.753H244.092C243.375 239.753 242.793 239.173 242.793 238.456V212.835Z" fill="#313030"/>
<path d="M106.035 215.429C106.035 214.713 106.616 214.132 107.334 214.132H108.309C109.026 214.132 109.608 214.713 109.608 215.429V224.186C109.608 224.903 109.026 225.483 108.309 225.483H107.334C106.616 225.483 106.035 224.903 106.035 224.186V215.429Z" fill="#313030"/>
<path d="M106.035 200.186C106.035 199.47 106.616 198.889 107.334 198.889H108.309C109.026 198.889 109.608 199.47 109.608 200.186V208.943C109.608 209.659 109.026 210.24 108.309 210.24H107.334C106.616 210.24 106.035 209.659 106.035 208.943V200.186Z" fill="#313030"/>
<g style="mix-blend-mode:multiply" opacity="0.3" filter="url(#filter2_f_206_196)">
<path style="mix-blend-mode:multiply" fill-rule="evenodd" clip-rule="evenodd" d="M116.095 421.049C116.137 421.049 116.179 421.05 116.221 421.05L235.981 421.049H236.107C244.296 421.105 250.914 426.602 250.914 433.374H236.107H221.048H131.028H116.221H101.162C101.162 426.567 107.848 421.049 116.095 421.049Z" fill="url(#paint6_linear_206_196)"/>
</g>
<g style="mix-blend-mode:multiply" filter="url(#filter3_f_206_196)">
<path d="M114.806 424.941C114.806 424.583 114.906 424.293 115.03 424.293H231.525C231.648 424.293 231.749 424.583 231.749 424.941C231.749 425.3 231.648 425.59 231.525 425.59H115.03C114.906 425.59 114.806 425.3 114.806 424.941Z" fill="#272737"/>
</g>
<path d="M107.009 166.457C107.009 155.351 116.026 146.349 127.149 146.349H224.927C236.05 146.349 245.067 155.351 245.067 166.457V404.833C245.067 415.939 236.05 424.941 224.927 424.941H127.149C116.026 424.941 107.009 415.939 107.009 404.833V166.457Z" fill="#F2F2F2"/>
<path d="M115.13 168.403C115.13 160.342 121.675 153.808 129.748 153.808H222.328C230.401 153.808 236.946 160.342 236.946 168.403V402.563C236.946 410.623 230.401 417.158 222.328 417.158H129.748C121.675 417.158 115.13 410.623 115.13 402.563V168.403Z" fill="black"/>
<path fill-rule="evenodd" clip-rule="evenodd" d="M222.328 154.133H129.748C121.854 154.133 115.455 160.521 115.455 168.403V402.563C115.455 410.444 121.854 416.833 129.748 416.833H222.328C230.222 416.833 236.621 410.444 236.621 402.563V168.403C236.621 160.521 230.222 154.133 222.328 154.133ZM129.748 153.808C121.675 153.808 115.13 160.342 115.13 168.403V402.563C115.13 410.623 121.675 417.158 129.748 417.158H222.328C230.401 417.158 236.946 410.623 236.946 402.563V168.403C236.946 160.342 230.401 153.808 222.328 153.808H129.748Z" fill="#F2F2F2"/>
<g style="mix-blend-mode:screen">
<path d="M115.13 168.403C115.13 160.342 121.675 153.808 129.748 153.808H222.328C230.401 153.808 236.946 160.342 236.946 168.403V402.563C236.946 410.623 230.401 417.158 222.328 417.158H129.748C121.675 417.158 115.13 410.623 115.13 402.563V168.403Z" fill="url(#paint7_linear_206_196)" fill-opacity="0.5"/>
</g>
<g filter="url(#filter4_d_206_196)">
<path fill-rule="evenodd" clip-rule="evenodd" d="M110.907 168.078C110.907 157.869 119.197 149.592 129.423 149.592H222.978C233.204 149.592 241.494 157.869 241.494 168.078V402.563C241.494 412.773 233.204 421.049 222.978 421.049H129.423C119.197 421.049 110.907 412.773 110.907 402.563V168.078ZM115.13 168.403C115.13 160.342 121.675 153.808 129.748 153.808H150.213C152.268 153.808 153.786 155.184 153.786 157.051V157.7C153.786 160.924 156.404 163.538 159.634 163.538H192.443C195.672 163.538 198.29 160.924 198.29 157.7V157.051C198.29 155.184 199.808 153.808 201.863 153.808H222.328C230.401 153.808 236.946 160.342 236.946 168.403V402.563C236.946 410.623 230.401 417.158 222.328 417.158H129.748C121.675 417.158 115.13 410.623 115.13 402.563V168.403Z" fill="#313030"/>
<path fill-rule="evenodd" clip-rule="evenodd" d="M110.907 168.078C110.907 157.869 119.197 149.592 129.423 149.592H222.978C233.204 149.592 241.494 157.869 241.494 168.078V402.563C241.494 412.773 233.204 421.049 222.978 421.049H129.423C119.197 421.049 110.907 412.773 110.907 402.563V168.078ZM115.13 168.403C115.13 160.342 121.675 153.808 129.748 153.808H150.213C152.268 153.808 153.786 155.184 153.786 157.051V157.7C153.786 160.924 156.404 163.538 159.634 163.538H192.443C195.672 163.538 198.29 160.924 198.29 157.7V157.051C198.29 155.184 199.808 153.808 201.863 153.808H222.328C230.401 153.808 236.946 160.342 236.946 168.403V402.563C236.946 410.623 230.401 417.158 222.328 417.158H129.748C121.675 417.158 115.13 410.623 115.13 402.563V168.403Z" fill="url(#paint8_linear_206_196)" fill-opacity="0.2"/>
</g>
<path fill-rule="evenodd" clip-rule="evenodd" d="M185.296 159.97C186.193 159.97 186.921 159.244 186.921 158.349C186.921 157.453 186.193 156.727 185.296 156.727C184.399 156.727 183.672 157.453 183.672 158.349C183.672 159.244 184.399 159.97 185.296 159.97ZM185.296 160.619C186.552 160.619 187.57 159.603 187.57 158.349C187.57 157.095 186.552 156.078 185.296 156.078C184.041 156.078 183.022 157.095 183.022 158.349C183.022 159.603 184.041 160.619 185.296 160.619Z" fill="#F2F2F2"/>
<path d="M164.506 158.349C164.506 157.811 164.943 157.376 165.481 157.376H177.825C178.363 157.376 178.799 157.811 178.799 158.349C178.799 158.886 178.363 159.322 177.825 159.322H165.481C164.943 159.322 164.506 158.886 164.506 158.349Z" fill="#F2F2F2"/>
</g>
<defs>
<filter id="filter0_f_206_196" x="0.5117" y="322.709" width="614.254" height="53.52" filterUnits="userSpaceOnUse" color-interpolation-filters="sRGB">
<feFlood flood-opacity="0" result="BackgroundImageFix"/>
<feBlend mode="normal" in="SourceGraphic" in2="BackgroundImageFix" result="shape"/>
<feGaussianBlur stdDeviation="10" result="effect1_foregroundBlur_206_196"/>
</filter>
<filter id="filter1_f_206_196" x="27.7661" y="331.385" width="552.989" height="26.028" filterUnits="userSpaceOnUse" color-interpolation-filters="sRGB">
<feFlood flood-opacity="0" result="BackgroundImageFix"/>
<feBlend mode="normal" in="SourceGraphic" in2="BackgroundImageFix" result="shape"/>
<feGaussianBlur stdDeviation="6" result="effect1_foregroundBlur_206_196"/>
</filter>
<filter id="filter2_f_206_196" x="81.162" y="401.049" width="189.752" height="52.325" filterUnits="userSpaceOnUse" color-interpolation-filters="sRGB">
<feFlood flood-opacity="0" result="BackgroundImageFix"/>
<feBlend mode="normal" in="SourceGraphic" in2="BackgroundImageFix" result="shape"/>
<feGaussianBlur stdDeviation="10" result="effect1_foregroundBlur_206_196"/>
</filter>
<filter id="filter3_f_206_196" x="102.806" y="412.293" width="140.943" height="25.297" filterUnits="userSpaceOnUse" color-interpolation-filters="sRGB">
<feFlood flood-opacity="0" result="BackgroundImageFix"/>
<feBlend mode="normal" in="SourceGraphic" in2="BackgroundImageFix" result="shape"/>
<feGaussianBlur stdDeviation="6" result="effect1_foregroundBlur_206_196"/>
</filter>
<filter id="filter4_d_206_196" x="108.907" y="147.592" width="134.587" height="275.457" filterUnits="userSpaceOnUse" color-interpolation-filters="sRGB">
<feFlood flood-opacity="0" result="BackgroundImageFix"/>
<feColorMatrix in="SourceAlpha" type="matrix" values="0 0 0 0 0 0 0 0 0 0 0 0 0 0 0 0 0 0 127 0" result="hardAlpha"/>
<feOffset/>
<feGaussianBlur stdDeviation="1"/>
<feColorMatrix type="matrix" values="0 0 0 0 0 0 0 0 0 0 0 0 0 0 0 0 0 0 0.15 0"/>
<feBlend mode="normal" in2="BackgroundImageFix" result="effect1_dropShadow_206_196"/>
<feBlend mode="normal" in="SourceGraphic" in2="effect1_dropShadow_206_196" result="shape"/>
</filter>
<linearGradient id="paint0_linear_206_196" x1="307.639" y1="356.229" x2="307.639" y2="342.709" gradientUnits="userSpaceOnUse">
<stop stop-color="#D6D6D6" stop-opacity="0"/>
<stop offset="1"/>
</linearGradient>
<linearGradient id="paint1_linear_206_196" x1="314.732" y1="324.459" x2="311.013" y2="1.01395" gradientUnits="userSpaceOnUse">
<stop stop-color="#E1E1E1"/>
<stop offset="1" stop-opacity="0"/>
</linearGradient>
<linearGradient id="paint2_linear_206_196" x1="542.745" y1="14.533" x2="386.927" y2="190.198" gradientUnits="userSpaceOnUse">
<stop stop-color="white" stop-opacity="0.5"/>
<stop offset="1" stop-color="white" stop-opacity="0"/>
</linearGradient>
<linearGradient id="paint3_linear_206_196" x1="307.639" y1="334.26" x2="307.639" y2="344.061" gradientUnits="userSpaceOnUse">
<stop stop-color="#D6D6D6" stop-opacity="0"/>
<stop offset="1" stop-color="#9E9E9E"/>
</linearGradient>
<linearGradient id="paint4_linear_206_196" x1="7" y1="330.543" x2="608.277" y2="330.543" gradientUnits="userSpaceOnUse">
<stop stop-color="#9E9E9E" stop-opacity="0.55"/>
<stop offset="0.0171348" stop-color="#F6F6F6"/>
<stop offset="0.0337079" stop-color="#9E9E9E" stop-opacity="0.5"/>
<stop offset="0.0955056" stop-color="#9E9E9E" stop-opacity="0.1"/>
<stop offset="0.897191" stop-color="#9E9E9E"/>
<stop offset="0.961236" stop-color="#9E9E9E" stop-opacity="0.5"/>
<stop offset="0.976966" stop-color="#F6F6F6" stop-opacity="0.218085"/>
<stop offset="1" stop-opacity="0.42"/>
</linearGradient>
<linearGradient id="paint5_linear_206_196" x1="266.09" y1="328.514" x2="349.188" y2="328.514" gradientUnits="userSpaceOnUse">
<stop stop-color="#9E9E9E"/>
<stop offset="0.174797" stop-color="#9E9E9E" stop-opacity="0.2"/>
<stop offset="0.841463" stop-color="#9E9E9E" stop-opacity="0.2"/>
<stop offset="1" stop-color="#9E9E9E"/>
</linearGradient>
<linearGradient id="paint6_linear_206_196" x1="176.038" y1="433.374" x2="176.038" y2="421.049" gradientUnits="userSpaceOnUse">
<stop stop-color="#D6D6D6" stop-opacity="0"/>
<stop offset="1"/>
</linearGradient>
<linearGradient id="paint7_linear_206_196" x1="236.946" y1="153.808" x2="115.453" y2="421.196" gradientUnits="userSpaceOnUse">
<stop stop-color="white"/>
<stop offset="0.291667" stop-color="white" stop-opacity="0"/>
</linearGradient>
<linearGradient id="paint8_linear_206_196" x1="110.907" y1="421.049" x2="239.21" y2="152.351" gradientUnits="userSpaceOnUse">
<stop stop-color="#9E9E9E"/>
<stop offset="1" stop-color="#9E9E9E" stop-opacity="0"/>
</linearGradient>
<clipPath id="clip0_206_196">
<rect width="615" height="454" fill="white"/>
</clipPath>
</defs>
</svg>
